<svg width="23" height="21" viewBox="0 0 23 21" fill="none" xmlns="http://www.w3.org/2000/svg">
<path fill-rule="evenodd" clip-rule="evenodd" d="M1.87754e-05 0.80332V1.4764C0.27887 1.96794 0.330334 2.39872 0.876133 2.60211C1.29691 2.75892 2.32507 2.67907 2.83831 2.68012C3.11106 2.81998 2.98094 2.64706 3.08657 3.12499C3.12694 3.3076 3.15655 3.53354 3.18969 3.70518C3.27024 4.12183 3.34359 4.52416 3.42335 4.93921L4.77442 12.1031C5.67583 16.9599 5.65974 15.9698 12.3319 15.9758C14.2241 15.9775 16.1163 15.9767 18.0085 15.976C18.8987 15.9757 19.9408 16.2067 20.1682 15.3088C20.4774 14.0876 19.8214 13.9005 18.7964 13.8977C14.9778 13.8872 11.144 13.8762 7.32601 13.9001L7.0101 11.7636C10.8366 11.7972 14.6717 11.7581 18.4982 11.7664C20.9514 11.7717 20.8049 11.0237 21.5185 9.03673L23 4.77988V4.30825C22.731 3.84979 22.6336 3.49484 21.6038 3.42288C20.8777 3.37211 20.0209 3.40979 19.2809 3.41028L5.36617 3.42209C4.91819 -0.433826 4.78869 0.026358 1.56521 0.00915975C0.483353 0.00335816 0.421244 0.0448892 0 0.803282L1.87754e-05 0.80332ZM6.7532 9.65613L18.9363 9.69529L20.4728 5.47722L5.87637 5.42551C6.00044 6.22972 6.49017 9.19703 6.7532 9.65613Z" fill="white"/>
<path fill-rule="evenodd" clip-rule="evenodd" d="M17.1926 20.9923H17.647C18.0983 20.7869 19.6371 20.5559 19.5922 18.7413C19.5631 17.5686 18.6047 16.6722 17.4205 16.6751C15.1529 16.6805 14.4286 19.6781 16.4223 20.7212C16.7715 20.9038 16.9301 20.8708 17.1926 20.9923Z" fill="white"/>
<path fill-rule="evenodd" clip-rule="evenodd" d="M7.45154 16.6515C4.65181 16.969 5.07912 21.3631 8.11303 20.8907C9.14023 20.7308 10.0622 19.6374 9.84106 18.3858C9.6549 17.3322 8.73523 16.5059 7.45156 16.6515L7.45154 16.6515Z" fill="white"/>
</svg>
